<svg height="580" width="580" xmlns="http://www.w3.org/2000/svg"><path d="m66.275 1.768c-41.335 0-64.571 21.371-64.571 65.036v450.123c0 40.844 20.895 62.229 62.192 62.229h452.024c41.307 0 62.229-20.315 62.229-62.229v-450.123c0-42.601-20.922-65.036-63.521-65.036-.004 0-448.495-.143-448.353 0z" fill="#111" stroke="#eee" stroke-width="3.408"/><path d="m-19.742432-69.308838c-.000019.747093.259991 1.380637.78003 1.900635.519999.52004 1.153136.78005 1.899414.780029.720192.000021 1.347022-.259989 1.880493-.780029.533423-.519998.800146-1.153542.800171-1.900635-.000025-.746232-.266748-1.37937-.800171-1.899414-.533471-.519994-1.160301-.780003-1.880493-.780029-.746278.000026-1.379415.260035-1.899414.780029-.520039.520044-.780049 1.153182-.78003 1.899414zm5.999756 14.080811v-9.60083c-.079778-.799948-.506209-1.199932-1.279297-1.199952h-5.080566c-.133482-.026021-.360126.080587-.679932.319825l-2.960205 1.71997-3.120117-3.079834c-.319836-.346658-.692964-.519998-1.119385-.520019-.906585.000021-1.359873.466736-1.359863 1.400146-.00001.3467.120026.66693.360107.960694l3.959961 3.959961c.31981.319839.66649.479751 1.040039.479736.239243.000015.519191-.093166.839844-.279541l2.600098-1.44043v7.080078l-3.959961 12.159424c-.080581.187172-.120864.373939-.12085.560303-.000014.533036.199977.993037.599976 1.380005.399968.386957.866887.580439 1.400757.580444.959455-.000005 1.61253-.493576 1.959228-1.480713l3.480225-10.520019 3.520508 10.560302c.346654.986324.999729 1.479487 1.959228 1.479493.533826-.000006 1.000745-.193284 1.400757-.579834.3999545-.386561.5999462-.846359.5999756-1.379395-.0000294-.187178-.0268848-.373945-.0805664-.560303zm-16.679687-10-.040283.039062c-.159514.160338-.159514.333678 0 .52002l.760498.800781c.159495.159523.332835.159523.520019 0l.039063-.040283c.160309-.186343.160309-.359683 0-.52002l-.759278-.79956c-.160328-.1603-.333667-.1603-.520019 0zm9.239502-6.520996 3.400879-3.15918c.132628-.16029.198953-.347058.198974-.560303-.000021-.559866-.279969-.839813-.839844-.839844-.240092.000031-.43988.066762-.599365.200196l-3.239746 3.239746-4.60083 4.959717.560303.560302z" fill="#fff" transform="matrix(14.685839 0 0 14.685839 565.76584 1146.0639)"/></svg>